<?xml version="1.0" encoding="UTF-8" standalone="no"?><!DOCTYPE svg PUBLIC "-//W3C//DTD SVG 1.1//EN" "http://www.w3.org/Graphics/SVG/1.1/DTD/svg11.dtd"><svg width="100%" height="100%" viewBox="0 0 64 64" version="1.1" xmlns="http://www.w3.org/2000/svg" xmlns:xlink="http://www.w3.org/1999/xlink" xml:space="preserve" xmlns:serif="http://www.serif.com/" style="fill-rule:evenodd;clip-rule:evenodd;stroke-linejoin:round;stroke-miterlimit:2;"><path d="M41.454,57.126l0,6.409c-6.088,0.286 -12.82,0.286 -18.908,0l0,-6.409c5.957,0.366 12.951,0.366 18.908,0Zm-33.93,-8.899c0.458,3.226 1.086,5.568 1.883,6.366c0.798,0.797 3.14,1.425 6.366,1.883l0,6.592c-6.084,-0.578 -10.706,-1.519 -12.015,-2.826c-1.307,-1.309 -2.248,-5.931 -2.826,-12.015l6.592,0Zm55.544,0c-0.578,6.084 -1.519,10.706 -2.826,12.015c-1.309,1.307 -5.931,2.248 -12.015,2.826l0,-6.592c3.226,-0.458 5.568,-1.086 6.366,-1.883c0.797,-0.798 1.425,-3.14 1.883,-6.366l6.592,0Zm0.467,-25.681c0.286,6.088 0.286,12.82 0,18.908l-6.409,0c0.366,-5.957 0.366,-12.951 0,-18.908l6.409,0Zm-56.661,0c-0.366,5.957 -0.366,12.951 0,18.908l-6.409,0c-0.286,-6.088 -0.286,-12.82 0,-18.908l6.409,0Zm41.353,-21.614c6.084,0.578 10.706,1.519 12.015,2.826c1.307,1.309 2.248,5.931 2.826,12.015l-6.592,0c-0.458,-3.226 -1.086,-5.568 -1.883,-6.366c-0.798,-0.797 -3.14,-1.425 -6.366,-1.883l0,-6.592Zm-32.454,0l0,6.592c-3.226,0.458 -5.568,1.086 -6.366,1.883c-0.797,0.798 -1.425,3.14 -1.883,6.366l-6.592,0c0.578,-6.084 1.519,-10.706 2.826,-12.015c1.309,-1.307 5.931,-2.248 12.015,-2.826Zm6.773,-0.467c6.088,-0.286 12.82,-0.286 18.908,0l0,6.409c-5.957,-0.366 -12.951,-0.366 -18.908,0l0,-6.409Z" style="fill:#1d72ba;fill-opacity:0.5;"/><path d="M18.03,29.037l11.007,0l0,-11.007l6.773,0l0,11.007l11.007,0l0,6.773l-11.007,0l0,11.007l-6.773,0l0,-11.007l-11.007,0l0,-6.773Z" style="fill:#1d72ba;"/></svg>