<?xml version="1.0" encoding="UTF-8" standalone="no"?>
<svg
   xmlns:dc="http://purl.org/dc/elements/1.1/"
   xmlns:cc="http://creativecommons.org/ns#"
   xmlns:rdf="http://www.w3.org/1999/02/22-rdf-syntax-ns#"
   xmlns:svg="http://www.w3.org/2000/svg"
   xmlns="http://www.w3.org/2000/svg"
   viewBox="0 0 533.33331 533.33331"
   height="533.33331"
   width="533.33331"
   xml:space="preserve"
   id="svg2"
   version="1.1"><metadata
     id="metadata8"><rdf:RDF><cc:Work
         rdf:about=""><dc:format>image/svg+xml</dc:format><dc:type
           rdf:resource="http://purl.org/dc/dcmitype/StillImage" /></cc:Work></rdf:RDF></metadata><defs
     id="defs6"><clipPath
       id="clipPath18"
       clipPathUnits="userSpaceOnUse"><path
         id="path16"
         d="M 0,400 H 400 V 0 H 0 Z" /></clipPath></defs><g
     transform="matrix(1.3333333,0,0,-1.3333333,0,533.33333)"
     id="g10"><g
       id="g12"><g
         clip-path="url(#clipPath18)"
         id="g14"><g
           transform="translate(350,200)"
           id="g20"><path
             id="path22"
             style="fill:#04b4ea;fill-opacity:1;fill-rule:nonzero;stroke:none"
             d="m 0,0 c 0,-82.843 -67.157,-150 -150,-150 -82.843,0 -150,67.157 -150,150 0,82.843 67.157,150 150,150 C -67.157,150 0,82.843 0,0" /></g><g
           transform="translate(141.2437,168.2812)"
           id="g24"><path
             id="path26"
             style="fill:#ffffff;fill-opacity:1;fill-rule:nonzero;stroke:none"
             d="m 0,0 52.536,32.312 c 0.37,0.228 0.595,0.63 0.595,1.064 v 24.182 c 0,0.978 -1.072,1.577 -1.904,1.065 L -10.589,20.602 c -0.832,-0.512 -1.905,0.086 -1.905,1.065 v 35.517 c 0,0.435 0.225,0.837 0.596,1.065 L 52.536,97.88 c 0.37,0.227 0.595,0.631 0.595,1.065 v 24.18 c 0,0.979 -1.072,1.578 -1.904,1.065 L -34.398,71.526 c -0.371,-0.228 -0.596,-0.631 -0.596,-1.065 V -7.023 c 0,-0.435 0.225,-0.838 0.596,-1.065 l 85.625,-52.665 c 0.832,-0.512 1.904,0.087 1.904,1.065 v 24.18 c 0,0.435 -0.225,0.838 -0.595,1.066 L 0,-2.13 C -0.793,-1.642 -0.793,-0.488 0,0" /></g><g
           transform="translate(293.1562,239.8071)"
           id="g28"><path
             id="path30"
             style="fill:#ffffff;fill-opacity:1;fill-rule:nonzero;stroke:none"
             d="m 0,0 -85.625,52.769 c -0.833,0.513 -1.906,-0.086 -1.906,-1.065 V 27.511 c 0,-0.433 0.224,-0.836 0.593,-1.064 L -22.5,-13.264 c 0.369,-0.227 0.594,-0.63 0.594,-1.064 v -35.405 c 0,-0.978 -1.073,-1.577 -1.906,-1.064 l -61.813,38.094 c -0.833,0.513 -1.906,-0.086 -1.906,-1.065 v -24.193 c 0,-0.434 0.224,-0.836 0.593,-1.064 l 52.663,-32.454 c 0.792,-0.488 0.792,-1.641 0,-2.129 l -52.663,-32.453 c -0.369,-0.228 -0.593,-0.631 -0.593,-1.064 v -24.194 c 0,-0.977 1.073,-1.577 1.906,-1.063 L 0,-79.615 c 0.369,0.228 0.594,0.631 0.594,1.065 V -1.064 C 0.594,-0.63 0.369,-0.228 0,0" /></g></g></g></g></svg>