<?xml version="1.0" encoding="utf-8"?>
<!-- Generator: Adobe Illustrator 24.0.0, SVG Export Plug-In . SVG Version: 6.00 Build 0)  -->
<svg version="1.1" id="Layer_1" xmlns="http://www.w3.org/2000/svg" xmlns:xlink="http://www.w3.org/1999/xlink" x="0px" y="0px"
	 viewBox="0 0 200 42.9" style="enable-background:new 0 0 200 42.9;" xml:space="preserve">
<style type="text/css">
	.st0{fill:#FFFFFF;}
</style>
<path class="st0" d="M51.8,13.5h11.5c0.1,0,0.2,0.1,0.2,0.2v3.6c0,0.1-0.1,0.2-0.2,0.2h-7.4c-0.1,0-0.2,0.1-0.2,0.2v2.5
	c0,0.1,0.1,0.2,0.2,0.2H62c0.1,0,0.2,0.1,0.2,0.2v3.4c0,0.1-0.1,0.2-0.2,0.2h-6.2c-0.1,0-0.2,0.1-0.2,0.2v5.1c0,0.1-0.1,0.2-0.2,0.2
	h-3.7c-0.1,0-0.2-0.1-0.2-0.2V13.6C51.6,13.5,51.7,13.5,51.8,13.5z"/>
<path class="st0" d="M65.1,13.5h3.7c0.1,0,0.2,0.1,0.2,0.2v11.7c0,0.1,0.1,0.2,0.2,0.2h7.3c0.1,0,0.2,0.1,0.2,0.2v3.6
	c0,0.1-0.1,0.2-0.2,0.2H65.1c-0.1,0-0.2-0.1-0.2-0.2V13.6C65,13.5,65,13.5,65.1,13.5z"/>
<path class="st0" d="M78.4,13.5h11.9c0.1,0,0.2,0.1,0.2,0.2v3.6c0,0.1-0.1,0.2-0.2,0.2h-8v2.3h6.6c0.1,0,0.2,0.1,0.2,0.2v3.4
	c0,0.1-0.1,0.2-0.2,0.2h-6.6v2.1h8c0.1,0,0.2,0.1,0.2,0.2v3.6c0,0.1-0.1,0.2-0.2,0.2H78.4c-0.1,0-0.2-0.1-0.2-0.2V13.6
	C78.2,13.5,78.3,13.5,78.4,13.5z"/>
<path class="st0" d="M107.5,13.7l-5.1,7.6c0,0.1,0,0.1,0,0.2l5.2,7.7c0.1,0.1,0,0.3-0.1,0.3h-4.5c-0.1,0-0.1,0-0.1-0.1l-2.8-4.1
	c-0.1-0.1-0.2-0.1-0.3,0l-2.8,4.1c0,0-0.1,0.1-0.2,0.1h-4.5c-0.1,0-0.2-0.2-0.1-0.3l5.2-7.7c0-0.1,0-0.1,0-0.2l-5.1-7.6
	c-0.1-0.1,0-0.3,0.1-0.3h4.4c0.1,0,0.1,0,0.1,0.1l2.8,4.1c0.1,0.1,0.2,0.1,0.3,0l2.8-4.1c0,0,0.1-0.1,0.1-0.1h4.4
	C107.5,13.5,107.6,13.6,107.5,13.7z"/>
<path class="st0" d="M109.2,13.6c0-0.1,0.1-0.2,0.2-0.2h7.8c0.9,0,1.6,0.1,2.3,0.3c0.6,0.2,1.2,0.5,1.6,0.9c0.4,0.4,0.8,0.9,1,1.4
	c0.2,0.5,0.3,1.1,0.3,1.8c0,0.8-0.2,1.5-0.5,2.1c-0.3,0.5-0.8,1-1.4,1.3c0.8,0.3,1.5,0.8,1.9,1.4c0.5,0.6,0.7,1.4,0.7,2.3
	c0,0.7-0.1,1.3-0.4,1.8c-0.2,0.6-0.6,1-1,1.4c-0.5,0.4-1,0.7-1.6,0.9s-1.4,0.3-2.2,0.3h-8.5c-0.1,0-0.2-0.1-0.2-0.2V13.6z
	 M113.3,17.2v2.5h3.4c0.6,0,1-0.1,1.2-0.3c0.2-0.2,0.3-0.5,0.3-0.9c0-0.4-0.1-0.7-0.3-0.9c-0.2-0.2-0.5-0.3-1-0.3H113.3z
	 M113.3,23.1v2.5c0,0.1,0.1,0.2,0.2,0.2h3.9c0.6,0,1-0.1,1.2-0.4c0.2-0.3,0.3-0.6,0.3-1c0-0.4-0.1-0.7-0.3-1
	c-0.2-0.3-0.6-0.4-1.2-0.4h-3.9C113.4,22.9,113.3,23,113.3,23.1z"/>
<path class="st0" d="M124.7,13.5h3.7c0.1,0,0.2,0.1,0.2,0.2v11.7c0,0.1,0.1,0.2,0.2,0.2h7.3c0.1,0,0.2,0.1,0.2,0.2v3.6
	c0,0.1-0.1,0.2-0.2,0.2h-11.4c-0.1,0-0.2-0.1-0.2-0.2V13.6C124.5,13.5,124.6,13.5,124.7,13.5z"/>
<path class="st0" d="M136.5,21.5c0-1.1,0.2-2.2,0.7-3.2c0.5-1,1.1-1.9,1.8-2.6s1.7-1.3,2.7-1.8c1-0.4,2.1-0.7,3.3-0.7
	c1.2,0,2.3,0.2,3.3,0.7c1,0.4,1.9,1,2.7,1.8c0.8,0.8,1.4,1.6,1.8,2.6c0.4,1,0.7,2.1,0.7,3.2c0,1.2-0.2,2.2-0.7,3.2
	c-0.4,1-1.1,1.9-1.8,2.6c-0.8,0.8-1.7,1.3-2.7,1.8s-2.1,0.7-3.3,0.7c-1.1,0-2.2-0.2-3.3-0.7c-1-0.4-1.9-1-2.7-1.8
	c-0.8-0.8-1.4-1.6-1.8-2.6S136.5,22.6,136.5,21.5z M140.6,21.5c0,0.6,0.1,1.2,0.3,1.7c0.2,0.5,0.5,1,0.9,1.4
	c0.4,0.4,0.9,0.7,1.4,0.9c0.5,0.2,1.1,0.3,1.7,0.3c0.6,0,1.2-0.1,1.7-0.3c0.5-0.2,1-0.5,1.4-0.9c0.4-0.4,0.7-0.9,0.9-1.4
	c0.2-0.5,0.3-1.1,0.3-1.7c0-0.6-0.1-1.2-0.3-1.7s-0.5-1-0.9-1.4c-0.4-0.4-0.8-0.7-1.4-0.9c-0.5-0.2-1.1-0.3-1.7-0.3
	c-0.6,0-1.2,0.1-1.7,0.3c-0.5,0.2-1,0.5-1.4,0.9c-0.4,0.4-0.7,0.9-0.9,1.4C140.7,20.3,140.6,20.9,140.6,21.5z"/>
<path class="st0" d="M170.9,25.2c-0.4,0.7-0.8,1.3-1.3,1.9c-0.5,0.6-1.1,1-1.8,1.4s-1.4,0.7-2.1,0.9c-0.8,0.2-1.6,0.3-2.4,0.3
	c-1.1,0-2.2-0.2-3.3-0.7c-1-0.4-1.9-1-2.7-1.8c-0.8-0.8-1.4-1.6-1.8-2.6s-0.7-2.1-0.7-3.2c0-1.1,0.2-2.2,0.7-3.2
	c0.5-1,1.1-1.9,1.8-2.6s1.7-1.3,2.7-1.8c1-0.4,2.1-0.7,3.3-0.7c0.8,0,1.6,0.1,2.4,0.3c0.8,0.2,1.5,0.5,2.1,0.9
	c0.7,0.4,1.2,0.9,1.8,1.4c0.5,0.6,1,1.2,1.3,1.8l-3.6,1.6c-0.1,0-0.2,0-0.2-0.1c-0.4-0.6-0.8-1.1-1.5-1.5c-0.7-0.4-1.4-0.6-2.3-0.6
	c-0.6,0-1.2,0.1-1.7,0.3c-0.5,0.2-1,0.5-1.4,0.9c-0.4,0.4-0.7,0.9-0.9,1.4c-0.2,0.5-0.3,1.1-0.3,1.7c0,0.6,0.1,1.2,0.3,1.7
	c0.2,0.5,0.5,1,0.9,1.4c0.4,0.4,0.9,0.7,1.4,0.9c0.5,0.2,1.1,0.3,1.7,0.3c0.9,0,1.6-0.2,2.3-0.6c0.6-0.4,1.1-0.9,1.5-1.5
	c0-0.1,0.1-0.1,0.2-0.1L170.9,25.2z"/>
<path class="st0" d="M172.4,13.5h3.7c0.1,0,0.2,0.1,0.2,0.2v4.9c0,0.2,0.2,0.2,0.3,0.1l4.6-5.1c0,0,0.1-0.1,0.1-0.1h4.8
	c0.2,0,0.2,0.2,0.1,0.3l-5.9,6.5c-0.1,0.1-0.1,0.2,0,0.2l6.4,8.7c0.1,0.1,0,0.3-0.1,0.3h-4.6c-0.1,0-0.1,0-0.1-0.1l-4.4-6l-1.1,1.2
	v4.6c0,0.1-0.1,0.2-0.2,0.2h-3.7c-0.1,0-0.2-0.1-0.2-0.2V13.6C172.2,13.5,172.3,13.5,172.4,13.5z"/>
<path class="st0" d="M190.8,24.7v0.1c0,0.2,0.1,0.3,0.2,0.5c0.1,0.2,0.3,0.3,0.5,0.5c0.2,0.1,0.5,0.3,0.8,0.4
	c0.3,0.1,0.7,0.1,1.2,0.1c0.8,0,1.3-0.1,1.6-0.3c0.3-0.2,0.4-0.4,0.4-0.7c0-0.3-0.2-0.6-0.6-0.9c-0.4-0.2-1.1-0.5-2.1-0.9
	c-0.6-0.2-1.3-0.4-2-0.7c-0.7-0.3-1.3-0.6-1.9-1c-0.6-0.4-1.1-0.9-1.4-1.5c-0.4-0.6-0.6-1.3-0.6-2.1c0-0.8,0.2-1.5,0.5-2.1
	c0.3-0.6,0.7-1.1,1.3-1.6c0.6-0.4,1.2-0.8,2-1c0.8-0.2,1.6-0.3,2.5-0.3c0.9,0,1.8,0.1,2.6,0.4c0.8,0.2,1.5,0.6,2.1,1
	c0.6,0.5,1,1,1.4,1.6c0.3,0.6,0.5,1.4,0.5,2.1v0.2h-4v-0.1c0-0.2-0.1-0.4-0.2-0.6c-0.1-0.2-0.3-0.4-0.5-0.6
	c-0.2-0.2-0.5-0.3-0.8-0.4c-0.3-0.1-0.7-0.2-1.1-0.2c-0.7,0-1.2,0.1-1.5,0.3c-0.3,0.2-0.5,0.5-0.5,0.7c0,0.3,0.2,0.6,0.6,0.8
	c0.4,0.2,1.1,0.5,2,0.8c0.5,0.2,1.2,0.4,1.9,0.7c0.7,0.3,1.4,0.6,2,1.1c0.6,0.4,1.1,1,1.5,1.6c0.4,0.6,0.6,1.4,0.6,2.2
	c0,0.8-0.2,1.5-0.5,2.1c-0.3,0.6-0.8,1.1-1.3,1.5c-0.6,0.4-1.2,0.7-2,0.9c-0.8,0.2-1.6,0.3-2.5,0.3c-1,0-1.9-0.1-2.7-0.3
	c-0.8-0.2-1.5-0.5-2.2-1c-0.6-0.4-1.1-0.9-1.4-1.6c-0.3-0.6-0.5-1.3-0.5-2.1v-0.2H190.8z"/>
<path class="st0" d="M8.1,28.8l12.2-7.5c0.1-0.1,0.1-0.1,0.1-0.2v-5.6c0-0.2-0.2-0.4-0.4-0.2L5.6,24c-0.2,0.1-0.4,0-0.4-0.2v-8.2
	c0-0.1,0.1-0.2,0.1-0.2l14.9-9.2c0.1-0.1,0.1-0.1,0.1-0.2V0.3c0-0.2-0.2-0.4-0.4-0.2L0.1,12.3C0.1,12.3,0,12.4,0,12.5v17.9
	c0,0.1,0.1,0.2,0.1,0.2l19.8,12.2c0.2,0.1,0.4,0,0.4-0.2V37c0-0.1-0.1-0.2-0.1-0.2L8.1,29.3C7.9,29.2,7.9,28.9,8.1,28.8z"/>
<path class="st0" d="M43.2,12.3L23.4,0c-0.2-0.1-0.4,0-0.4,0.2v5.6C23,6,23,6.1,23.1,6.1L38,15.3c0.1,0.1,0.1,0.1,0.1,0.2v8.2
	c0,0.2-0.2,0.4-0.4,0.2l-14.3-8.8c-0.2-0.1-0.4,0-0.4,0.2V21c0,0.1,0.1,0.2,0.1,0.2l12.2,7.5c0.2,0.1,0.2,0.4,0,0.5l-12.2,7.5
	C23,36.8,23,36.9,23,37v5.6c0,0.2,0.2,0.4,0.4,0.2l19.8-12.2c0.1-0.1,0.1-0.1,0.1-0.2V12.5C43.4,12.4,43.3,12.3,43.2,12.3z"/>
</svg>
