<?xml version="1.0" encoding="utf-8"?>
<!-- Generator: Adobe Illustrator 24.0.0, SVG Export Plug-In . SVG Version: 6.00 Build 0)  -->
<svg version="1.1" id="Layer_10" xmlns="http://www.w3.org/2000/svg" xmlns:xlink="http://www.w3.org/1999/xlink" x="0px" y="0px"
	 viewBox="0 0 300 83.093" style="enable-background:new 0 0 300 83.093;" xml:space="preserve">
<style type="text/css">
	.st0{fill:#111111;}
</style>
<g>
	<path class="st0" d="M100.756,41.161v8.645c-1.027,0.938-3.567,2.63-8.132,2.63c-6.771,0-11.427-4.807-11.427-10.913
		c0-6.076,4.656-10.883,11.548-10.883c4.414,0,6.651,1.572,7.437,2.086l-2.207,4.021c-0.514-0.302-2.267-1.33-5.079-1.33
		c-3.809,0-6.438,2.357-6.438,6.107c0,3.779,2.871,6.378,6.469,6.378c1.21,0,2.267-0.212,3.144-0.664v-6.076H100.756z"/>
	<path class="st0" d="M117.604,46.139h-10.224c0.545,1.186,1.859,2.083,3.718,2.083c2.147,0,3.173-1.058,3.685-1.442l2.019,3.621
		c-0.769,0.737-2.692,2.051-6.282,2.051c-4.712,0-8.237-3.365-8.237-7.66s3.269-7.661,7.821-7.661c4.647,0,7.564,3.398,7.564,7.821
		C117.668,45.498,117.604,46.139,117.604,46.139z M107.347,43.094h5.512c-0.224-1.186-1.25-2.019-2.564-2.019
		C108.853,41.075,107.796,41.684,107.347,43.094z"/>
	<path class="st0" d="M134.715,44.023v8.141h-5.064v-7.403c0-1.859-1.09-3.077-2.661-3.077c-1.666,0-2.82,1.186-2.82,3.077v7.403
		h-5.064V37.421h3.525l0.192,2.371c0.898-1.507,2.693-2.661,5.385-2.661C132.215,37.132,134.715,39.793,134.715,44.023z"/>
	<path class="st0" d="M151.418,46.139h-10.224c0.545,1.186,1.859,2.083,3.718,2.083c2.147,0,3.173-1.058,3.685-1.442l2.019,3.621
		c-0.769,0.737-2.692,2.051-6.282,2.051c-4.712,0-8.237-3.365-8.237-7.66s3.269-7.661,7.821-7.661c4.647,0,7.564,3.398,7.564,7.821
		C151.482,45.498,151.418,46.139,151.418,46.139z M141.162,43.094h5.512c-0.224-1.186-1.25-2.019-2.564-2.019
		C142.668,41.075,141.61,41.684,141.162,43.094z"/>
	<path class="st0" d="M163.475,37.26l-0.416,5.032c-0.449-0.192-0.801-0.32-1.539-0.32c-1.987,0-3.429,1.09-3.429,3.141v7.051
		h-5.064V37.421h4.167l0.192,2.692c0.48-1.73,2.371-2.981,4.744-2.981C162.609,37.132,163.058,37.164,163.475,37.26z"/>
	<path class="st0" d="M179.885,37.421v14.743h-4.488l-0.192-1.731c-1.058,1.154-2.5,2.019-4.423,2.019
		c-4.102,0-7.051-3.301-7.051-7.66s3.109-7.661,7.211-7.661c1.635,0,2.981,0.545,4.038,1.347l0.192-1.058H179.885z M175.045,44.793
		c-0.032-1.795-1.186-3.077-3.109-3.077c-1.827,0-3.109,1.314-3.109,3.077c0,1.73,1.282,3.077,3.109,3.077
		C173.859,47.87,175.077,46.523,175.045,44.793z"/>
	<path class="st0" d="M184.317,46.427v-4.743h-2.98v-4.263h3.141v-5.064h4.903v5.064h5.16v4.263h-5.16v4.134
		c0,1.538,1.058,2.051,2.276,2.051c1.09,0,1.826-0.449,2.211-0.673l1.73,3.75c-0.64,0.448-2.179,1.506-5.16,1.506
		C186.562,52.452,184.317,50.305,184.317,46.427z"/>
	<path class="st0" d="M210.774,46.139H200.55c0.545,1.186,1.859,2.083,3.718,2.083c2.147,0,3.173-1.058,3.685-1.442l2.019,3.621
		c-0.769,0.737-2.692,2.051-6.282,2.051c-4.712,0-8.237-3.365-8.237-7.66s3.269-7.661,7.821-7.661c4.647,0,7.564,3.398,7.564,7.821
		C210.838,45.498,210.774,46.139,210.774,46.139z M200.518,43.094h5.512c-0.224-1.186-1.25-2.019-2.564-2.019
		C202.024,41.075,200.966,41.684,200.518,43.094z"/>
	<g>
		<path class="st0" d="M229.763,46.058c0,3.779-2.449,6.107-8.344,6.107h-8.827V30.913h8.434c5.653,0,7.951,2.388,7.951,5.441
			c0,2.298-1.269,3.93-3.144,4.595C228.403,41.583,229.763,43.609,229.763,46.058z M220.966,35.085h-3.416v4.414h3.416
			c2.237,0,3.144-0.786,3.144-2.207C224.11,35.931,223.203,35.085,220.966,35.085z M224.805,45.755c0-1.511-1.088-2.327-3.476-2.327
			h-3.779v4.564h3.9C223.808,47.992,224.805,47.116,224.805,45.755z"/>
		<path class="st0" d="M231.47,30.913h5.064v21.252h-5.064V30.913z"/>
		<path class="st0" d="M238.108,44.793c0-4.359,3.59-7.661,8.109-7.661c4.487,0,8.077,3.302,8.077,7.661s-3.59,7.66-8.077,7.66
			C241.698,52.452,238.108,49.151,238.108,44.793z M249.198,44.793c0-1.667-1.218-3.077-2.981-3.077
			c-1.795,0-3.013,1.41-3.013,3.077c0,1.666,1.218,3.077,3.013,3.077C247.98,47.87,249.198,46.459,249.198,44.793z"/>
		<path class="st0" d="M255.448,44.793c0-4.295,3.493-7.661,8.173-7.661c3.141,0,4.84,1.154,5.608,1.667l-1.986,3.878
			c-0.545-0.385-1.507-0.962-3.013-0.962c-2.18,0-3.59,1.282-3.59,3.077s1.41,3.077,3.59,3.077c1.506,0,2.468-0.577,3.013-0.962
			l1.954,3.782c-0.769,0.512-2.435,1.762-5.576,1.762C258.942,52.452,255.448,49.087,255.448,44.793z"/>
		<path class="st0" d="M280.43,52.164l-4.743-5.608v5.608h-5.064V30.913h5.064V43.03l4.455-5.608h6.25l-6.154,6.986l6.667,7.757
			H280.43z"/>
		<path class="st0" d="M286.411,50.529l2.019-3.685c1.09,0.801,3.045,1.634,5.032,1.634c0.801,0,1.186-0.224,1.186-0.705
			c0-0.545-0.705-0.737-2.275-1.09c-2.179-0.481-5.321-1.539-5.321-4.68c0-2.981,2.564-4.872,6.475-4.872
			c2.596,0,5.096,0.769,6.474,1.731l-1.955,3.686c-1.218-0.801-2.981-1.443-4.551-1.443c-0.833,0-1.218,0.224-1.218,0.705
			c0,0.512,0.704,0.673,2.66,1.09c1.795,0.384,4.936,1.154,4.936,4.551c0,2.917-2.275,5-7.019,5
			C290.257,52.452,287.853,51.587,286.411,50.529z"/>
	</g>
</g>
<g>
	<path class="st0" d="M9.241,43.703v-8.78v-8.78c0-0.022,0.007-0.043,0.019-0.06s0.03-0.031,0.05-0.038l8.984-3.197l8.984-3.197
		l13.383-4.762l13.383-4.762c0.021-0.007,0.038-0.021,0.05-0.038c0.012-0.017,0.019-0.038,0.019-0.06V5.068V0.104
		c0-0.036-0.018-0.067-0.044-0.085c-0.026-0.019-0.061-0.025-0.095-0.013L36.007,6.399l-17.969,6.393l-8.984,3.197l-8.984,3.197
		c-0.021,0.007-0.038,0.021-0.05,0.038S0,19.262,0,19.284v8.78v8.78v8.817v8.817v8.743v8.743c0,0.036,0.018,0.067,0.044,0.085
		c0.026,0.019,0.061,0.025,0.095,0.013l4.516-1.607l4.516-1.607c0.021-0.007,0.038-0.021,0.05-0.038s0.019-0.038,0.019-0.06v-3.706
		v-3.706V52.52V43.703z"/>
	<path class="st0" d="M33.102,41.428l17.969-6.393l17.969-6.393c0.021-0.007,0.038-0.021,0.05-0.038
		c0.012-0.017,0.019-0.038,0.019-0.06v-8.706v-8.706c0-0.036-0.018-0.067-0.044-0.085c-0.026-0.019-0.061-0.025-0.095-0.013
		l-17.969,6.393l-17.969,6.393l-8.984,3.197l-8.984,3.197c-0.021,0.007-0.038,0.021-0.05,0.038c-0.012,0.017-0.019,0.038-0.019,0.06
		v8.78v8.78v8.817v8.817v8.743v8.743c0,0.036,0.018,0.067,0.044,0.085c0.026,0.019,0.061,0.025,0.095,0.013l8.949-3.184l8.949-3.184
		l9.019-3.209l9.019-3.209l8.984-3.197l8.984-3.197c0.021-0.007,0.038-0.021,0.05-0.038c0.012-0.017,0.019-0.038,0.019-0.06v-8.78
		v-8.78v-4.334v-4.334c0-0.036-0.018-0.067-0.044-0.085s-0.061-0.025-0.095-0.013l-8.915,3.172l-8.915,3.172
		c-0.021,0.007-0.038,0.021-0.05,0.038s-0.019,0.038-0.019,0.06v4.335v4.335c0,0.022-0.007,0.043-0.019,0.06s-0.03,0.031-0.05,0.038
		l-8.915,3.172l-8.915,3.172c-0.034,0.012-0.069,0.006-0.095-0.013c-0.026-0.019-0.044-0.049-0.044-0.085v-8.706v-8.706
		c0-0.022,0.007-0.043,0.019-0.06S33.081,41.435,33.102,41.428z"/>
</g>
</svg>
