<?xml version="1.0" encoding="UTF-8"?>
<svg viewBox="0 0 254 48" xmlns="http://www.w3.org/2000/svg">
<path transform="translate(60.047 12.047)" d="m19.002 19.605c-2.0067 1.4662-4.5361 2.1993-7.5881 2.1993-3.3864 0-6.1353-0.9739-8.2466-2.9219-2.1113-1.9479-3.1669-4.5975-3.1669-7.9488 0-3.3094 1.0974-5.959 3.2924-7.9488 2.2158-1.9898 5.0169-2.9847 8.4033-2.9847 2.3831 0 4.4421 0.43986 6.1771 1.3196v4.8384c-2.0068-1.152-4.0658-1.728-6.1771-1.728-1.9858 0-3.5641 0.59695-4.7347 1.7908-1.1706 1.1729-1.7559 2.7439-1.7559 4.7127 0 1.9898 0.57485 3.5712 1.7246 4.7442 1.1497 1.1729 2.7175 1.7594 4.7034 1.7594 0.8989 0 1.7873-0.1362 2.6653-0.4084v-3.9902h-3.4178v-4.1157h8.1211v10.682z" fill="#1B212B"/>
<path transform="translate(60.047 12.047)" d="m34.618 20.642c-1.087 0.7122-2.7488 1.0683-4.9855 1.0683-2.613 0-4.6512-0.7541-6.1144-2.2621-1.4424-1.5291-2.1636-3.4875-2.1636-5.8752 0-2.5344 0.7003-4.5138 2.1009-5.9381 1.4214-1.4452 3.1669-2.1679 5.2364-2.1679 2.1322 0 3.8149 0.62837 5.0483 1.8851 1.2333 1.2358 1.85 3.0894 1.85 5.561 0 0.4817-0.0836 1.3091-0.2509 2.482h-9.344c0.3135 0.8797 0.857 1.5604 1.6305 2.0422 0.7734 0.4817 1.7037 0.7226 2.7907 0.7226 1.6096 0 3.0101-0.4503 4.2016-1.351v3.833zm-5.7381-11.688c-0.7316 0-1.3796 0.27229-1.944 0.81688-0.5644 0.52364-0.9407 1.309-1.1288 2.3563h5.5186v-0.377c-0.1464-1.8642-0.9616-2.7962-2.4458-2.7962z" fill="#1B212B"/>
<path transform="translate(60.047 12.047)" d="m52.811 21.553h-4.578v-9.4883c0-0.9426-0.2195-1.6547-0.6584-2.1364-0.439-0.50269-1.0557-0.75404-1.85-0.75404-0.8362 0-1.5365 0.33513-2.1009 1.0054-0.5435 0.6493-0.8152 1.6337-0.8152 2.9533v8.4201h-4.578v-15.929h4.578v2.702c0.3971-0.87971 1.0034-1.5709 1.8186-2.0736 0.8362-0.52364 1.8291-0.78546 2.9788-0.78546 1.6305 0 2.9057 0.49222 3.8254 1.4767 0.9198 0.96349 1.3797 2.3878 1.3797 4.2729v10.337z" fill="#1B212B"/>
<path transform="translate(60.047 12.047)" d="m68.272 20.642c-1.087 0.7122-2.7488 1.0683-4.9855 1.0683-2.613 0-4.6511-0.7541-6.1144-2.2621-1.4424-1.5291-2.1636-3.4875-2.1636-5.8752 0-2.5344 0.7003-4.5138 2.1009-5.9381 1.4214-1.4452 3.1669-2.1679 5.2364-2.1679 2.1322 0 3.815 0.62837 5.0483 1.8851 1.2333 1.2358 1.85 3.0894 1.85 5.561 0 0.4817-0.0836 1.3091-0.2509 2.482h-9.344c0.3136 0.8797 0.8571 1.5604 1.6305 2.0422 0.7734 0.4817 1.7037 0.7226 2.7907 0.7226 1.6096 0 3.0101-0.4503 4.2016-1.351v3.833zm-5.7381-11.688c-0.7316 0-1.3796 0.27229-1.944 0.81688-0.5644 0.52364-0.9407 1.309-1.1288 2.3563h5.5186v-0.377c-0.1463-1.8642-0.9616-2.7962-2.4458-2.7962z" fill="#1B212B"/>
<path transform="translate(60.047 12.047)" d="m76.431 21.553h-4.5779l0.0313-15.929h4.5466v2.9533c0.2927-0.9216 0.7735-1.6547 1.4424-2.1993 0.6898-0.56553 1.4842-0.84829 2.383-0.84829 0.5017 0 0.8989 0.04189 1.1916 0.12567v4.3357c-0.5017-0.2304-1.0766-0.3456-1.7246-0.3456-0.9825 0-1.7768 0.36652-2.3831 1.0996-0.6062 0.7122-0.9093 1.6652-0.9093 2.8591v7.9488z" fill="#1B212B"/>
<path transform="translate(60.047 12.047)" d="m88.695 18.411c0.648 0 1.1497-0.199 1.5051-0.597s0.533-0.9425 0.533-1.6337v-1.1625h-1.4737c-0.7734 0-1.3692 0.1676-1.7873 0.5027-0.418 0.3351-0.6271 0.7645-0.6271 1.2881 0 1.0682 0.6167 1.6024 1.85 1.6024zm2.2576 1.1938c-0.6689 1.3615-1.9858 2.0422-3.9508 2.0422-1.5469 0-2.7593-0.4398-3.6373-1.3195-0.857-0.8797-1.2855-1.9794-1.2855-3.2989 0-1.5291 0.5539-2.7125 1.6618-3.5503 1.1288-0.8588 2.7907-1.2881 4.9856-1.2881h2.0067v-1.0997c0-1.3405-0.8884-2.0108-2.6652-2.0108-1.7141 0-3.3028 0.48175-4.7661 1.4452v-4.1158c1.2543-0.71215 3.0624-1.0682 5.4246-1.0682 2.2576 0 3.9404 0.49222 5.0483 1.4767 1.1079 0.96349 1.6618 2.4716 1.6618 4.5242v10.211h-4.4839v-1.948z" fill="#1B212B"/>
<path transform="translate(60.047 12.047)" d="m107.68 21.207c-0.774 0.3351-1.819 0.5027-3.136 0.5027-3.616 0-5.4245-1.8118-5.4245-5.4354v-7.289h-2.2889v-3.3618h2.2889v-3.7702h4.5775v3.7702h3.7v3.3618h-3.7v7.3204c0 0.5656 0.157 0.9949 0.471 1.2882 0.334 0.2932 0.763 0.4398 1.285 0.4398 0.837 0 1.579-0.2094 2.227-0.6283v3.8016z" fill="#1B212B"/>
<path transform="translate(60.047 12.047)" d="m122.35 20.642c-1.087 0.7122-2.749 1.0683-4.985 1.0683-2.613 0-4.652-0.7541-6.115-2.2621-1.442-1.5291-2.163-3.4875-2.163-5.8752 0-2.5344 0.7-4.5138 2.1-5.9381 1.422-1.4452 3.167-2.1679 5.237-2.1679 2.132 0 3.815 0.62837 5.048 1.8851 1.233 1.2358 1.85 3.0894 1.85 5.561 0 0.4817-0.083 1.3091-0.251 2.482h-9.344c0.314 0.8797 0.857 1.5604 1.631 2.0422 0.773 0.4817 1.703 0.7226 2.79 0.7226 1.61 0 3.011-0.4503 4.202-1.351v3.833zm-5.738-11.688c-0.732 0-1.38 0.27229-1.944 0.81688-0.564 0.52364-0.941 1.309-1.129 2.3563h5.519v-0.377c-0.147-1.8642-0.962-2.7962-2.446-2.7962z" fill="#1B212B"/>
<path transform="translate(60.047 12.047)" d="m133.4 14.704h-2.446v6.8492h-4.829v-21.176h7.275c2.341 0 4.233 0.65978 5.675 1.9793 1.463 1.3196 2.195 2.9952 2.195 5.0269 0 2.325-0.763 4.1262-2.289 5.4039-1.505 1.2777-3.365 1.9165-5.581 1.9165zm-0.565-10.462h-1.881v6.6292h1.599c2.55 0 3.826-1.1625 3.826-3.4874 0-2.0945-1.182-3.1418-3.544-3.1418z" fill="#1B212B"/>
<path transform="translate(60.047 12.047)" d="m147.55 21.553h-4.578l0.032-15.929h4.546v2.9533c0.293-0.9216 0.774-1.6547 1.443-2.1993 0.689-0.56553 1.484-0.84829 2.383-0.84829 0.501 0 0.898 0.04189 1.191 0.12567v4.3357c-0.502-0.2304-1.076-0.3456-1.724-0.3456-0.983 0-1.777 0.36652-2.384 1.0996-0.606 0.7122-0.909 1.6652-0.909 2.8591v7.9488z" fill="#1B212B"/>
<path transform="translate(60.047 12.047)" d="m166.46 20.642c-1.087 0.7122-2.748 1.0683-4.985 1.0683-2.613 0-4.651-0.7541-6.115-2.2621-1.442-1.5291-2.163-3.4875-2.163-5.8752 0-2.5344 0.7-4.5138 2.101-5.9381 1.421-1.4452 3.167-2.1679 5.236-2.1679 2.132 0 3.815 0.62837 5.048 1.8851 1.234 1.2358 1.85 3.0894 1.85 5.561 0 0.4817-0.083 1.3091-0.25 2.482h-9.344c0.313 0.8797 0.857 1.5604 1.63 2.0422 0.773 0.4817 1.704 0.7226 2.791 0.7226 1.609 0 3.01-0.4503 4.201-1.351v3.833zm-5.738-11.688c-0.731 0-1.379 0.27229-1.944 0.81688-0.564 0.52364-0.94 1.309-1.129 2.3563h5.519v-0.377c-0.146-1.8642-0.962-2.7962-2.446-2.7962z" fill="#1B212B"/>
<path transform="translate(60.047 12.047)" d="m180.92 16.746c0 1.5709-0.565 2.7857-1.693 3.6445-1.129 0.8588-2.624 1.2881-4.484 1.2881-1.923 0-3.533-0.3246-4.829-0.9739v-4.0844c1.442 1.0054 2.968 1.5081 4.578 1.5081 1.15 0 1.724-0.3666 1.724-1.0996 0-0.1886-0.052-0.3666-0.156-0.5342-0.105-0.1675-0.283-0.3246-0.533-0.4712-0.251-0.1466-0.481-0.2618-0.69-0.3456-0.209-0.1048-0.512-0.2409-0.91-0.4085-0.397-0.1675-0.7-0.3037-0.909-0.4084-2.111-1.0054-3.167-2.5135-3.167-4.5242 0-1.55 0.585-2.7544 1.756-3.6131 1.192-0.85876 2.665-1.2881 4.421-1.2881 1.631 0 2.99 0.21992 4.077 0.65978v3.9273c-1.108-0.64931-2.404-0.97396-3.889-0.97396-0.543 0-0.961 0.1152-1.254 0.3456-0.292 0.20945-0.439 0.48174-0.439 0.81686 0 0.1885 0.052 0.3666 0.157 0.5341 0.104 0.1676 0.272 0.3247 0.502 0.4713 0.251 0.1466 0.48 0.2828 0.69 0.4084 0.229 0.1048 0.533 0.2409 0.909 0.4085 0.397 0.1675 0.711 0.3141 0.94 0.4398 0.962 0.5027 1.736 1.0892 2.321 1.7594 0.585 0.6493 0.878 1.4872 0.878 2.5135z" fill="#1B212B"/>
<path transform="translate(60.047 12.047)" d="m193.95 16.746c0 1.5709-0.565 2.7857-1.694 3.6445-1.128 0.8588-2.623 1.2881-4.483 1.2881-1.924 0-3.533-0.3246-4.829-0.9739v-4.0844c1.442 1.0054 2.968 1.5081 4.578 1.5081 1.149 0 1.724-0.3666 1.724-1.0996 0-0.1886-0.052-0.3666-0.157-0.5342-0.104-0.1675-0.282-0.3246-0.533-0.4712-0.25-0.1466-0.48-0.2618-0.689-0.3456-0.209-0.1048-0.513-0.2409-0.91-0.4085-0.397-0.1675-0.7-0.3037-0.909-0.4084-2.111-1.0054-3.167-2.5135-3.167-4.5242 0-1.55 0.585-2.7544 1.756-3.6131 1.191-0.85876 2.665-1.2881 4.421-1.2881 1.631 0 2.989 0.21992 4.076 0.65978v3.9273c-1.108-0.64931-2.404-0.97396-3.888-0.97396-0.543 0-0.961 0.1152-1.254 0.3456-0.293 0.20945-0.439 0.48174-0.439 0.81686 0 0.1885 0.052 0.3666 0.157 0.5341 0.104 0.1676 0.272 0.3247 0.501 0.4713 0.251 0.1466 0.481 0.2828 0.69 0.4084 0.23 0.1048 0.533 0.2409 0.91 0.4085 0.397 0.1675 0.71 0.3141 0.94 0.4398 0.962 0.5027 1.735 1.0892 2.321 1.7594 0.585 0.6493 0.878 1.4872 0.878 2.5135z" fill="#1B212B"/>
<path transform="translate(0 .00021362)" d="m30.83 30.489l1.2588-2.7058c1.0475-2.2512 1.0857-4.716 0.3-6.8792-0.7865-2.1632-2.3959-4.0266-4.6427-5.0762-4.4946-2.1001-9.836-0.1521-11.932 4.3513l-3.7862 8.1351 22.238 10.39c-5.0893 3.5712-11.889 4.3985-17.925 1.5788-8.9962-4.2036-12.889-14.92-8.6935-23.935 4.1954-9.0148 14.891-12.915 23.888-8.7115 7.0973 3.316 11.018 10.683 10.298 18.072l5.6735 2.6506c1.9432-10.498-3.329-21.385-13.434-26.106-11.985-5.6001-26.234-0.40382-31.823 11.606-5.5891 12.01-0.40303 26.287 11.583 31.887 9.1213 4.2614 19.552 2.2717 26.481-4.2161 1.4851-1.3903 2.8105-2.9887 3.9255-4.7756l-13.408-6.2655zm-5.4329-2.5377l-5.4089-2.527 1.2677-2.7235c0.6969-1.497 2.4723-2.1446 3.9655-1.4472 0.7474 0.3495 1.2818 0.9677 1.5428 1.6873 0.2619 0.7187 0.2486 1.5388-0.0994 2.2869l-1.2677 2.7235z" fill="#1B212B"/>
</svg>
