<?xml version="1.0" encoding="UTF-8" standalone="no"?>
<svg
   xmlns:dc="http://purl.org/dc/elements/1.1/"
   xmlns:cc="http://creativecommons.org/ns#"
   xmlns:rdf="http://www.w3.org/1999/02/22-rdf-syntax-ns#"
   xmlns:svg="http://www.w3.org/2000/svg"
   xmlns="http://www.w3.org/2000/svg"
   viewBox="0 0 1066.6667 1066.6667"
   height="1066.6667"
   width="1066.6667"
   xml:space="preserve"
   id="svg2"
   version="1.1"><metadata
     id="metadata8"><rdf:RDF><cc:Work
         rdf:about=""><dc:format>image/svg+xml</dc:format><dc:type
           rdf:resource="http://purl.org/dc/dcmitype/StillImage" /></cc:Work></rdf:RDF></metadata><defs
     id="defs6"><clipPath
       id="clipPath18"
       clipPathUnits="userSpaceOnUse"><path
         id="path16"
         d="M 0,800 H 800 V 0 H 0 Z" /></clipPath></defs><g
     transform="matrix(1.3333333,0,0,-1.3333333,0,1066.6667)"
     id="g10"><g
       id="g12"><g
         clip-path="url(#clipPath18)"
         id="g14"><g
           transform="translate(350.188,381.7861)"
           id="g20"><path
             id="path22"
             style="fill:#1b212b;fill-opacity:1;fill-rule:nonzero;stroke:none"
             d="M 0,0 15.845,33.97 C 24.596,52.73 46.903,60.847 65.67,52.099 84.437,43.351 92.556,21.05 83.805,2.289 L 67.959,-31.681 33.98,-15.84 Z m 235.025,-109.56 -99.106,46.2 15.846,33.968 c 5.557,11.915 8.822,24.305 10.022,36.685 3.264,33.721 -8.979,67.349 -33.162,91.083 -8.878,8.713 -19.346,16.106 -31.265,21.662 -11.918,5.555 -24.312,8.82 -36.695,10.018 C 26.933,133.32 -6.705,121.081 -30.446,96.905 -39.162,88.029 -46.557,77.564 -52.115,65.65 L -67.96,31.681 -98.382,-33.541 c -0.701,-1.501 -0.051,-3.284 1.45,-3.984 l 65.242,-30.413 33.98,-15.841 33.98,-15.84 67.96,-31.681 74.657,-34.803 C 113.928,-211.49 26.762,-221.268 -49.823,-183.491 -160.009,-129.141 -206.131,4.89 -152.905,115.597 -99.618,226.433 33.108,274.057 144.896,221.946 232.993,180.878 281.96,90.037 273.96,-1.465 c -0.109,-1.254 0.567,-2.441 1.707,-2.973 l 65.558,-30.561 c 1.786,-0.833 3.895,0.252 4.231,2.194 22.606,130.656 -44.028,265.407 -170.538,323.461 -150.335,68.988 -327.029,4.065 -396.935,-145.81 -70.004,-150.085 -5.05,-328.487 145.081,-398.472 114.081,-53.18 244.503,-28.441 331.285,52.347 17.86,16.627 33.879,35.62 47.519,56.806 0.982,1.526 0.378,3.577 -1.267,4.344 z" /></g></g></g></g></svg>