<svg width="196" height="34" viewBox="0 0 196 34" fill="none" xmlns="http://www.w3.org/2000/svg">
<path d="M9 0L11.645 5.35942L17.5595 6.21885L13.2798 10.3906L14.2901 16.2812L9 13.5L3.70993 16.2812L4.72025 10.3906L0.440491 6.21885L6.35497 5.35942L9 0Z" transform="translate(159.999 -0.000366211) scale(2)" fill="#F2994A"/>
<path d="M9 0L11.645 5.35942L17.5595 6.21885L13.2798 10.3906L14.2901 16.2812L9 13.5L3.70993 16.2812L4.72025 10.3906L0.440491 6.21885L6.35497 5.35942L9 0Z" transform="translate(119.999 -0.000366211) scale(2)" fill="#F2994A"/>
<path d="M9 0L11.645 5.35942L17.5595 6.21885L13.2798 10.3906L14.2901 16.2812L9 13.5L3.70993 16.2812L4.72025 10.3906L0.440491 6.21885L6.35497 5.35942L9 0Z" transform="translate(79.999 -0.000366211) scale(2)" fill="#F2994A"/>
<path d="M9 0L11.645 5.35942L17.5595 6.21885L13.2798 10.3906L14.2901 16.2812L9 13.5L3.70993 16.2812L4.72025 10.3906L0.440491 6.21885L6.35497 5.35942L9 0Z" transform="translate(39.999 -0.000366211) scale(2)" fill="#F2994A"/>
<path d="M9 0L11.645 5.35942L17.5595 6.21885L13.2798 10.3906L14.2901 16.2812L9 13.5L3.70993 16.2812L4.72025 10.3906L0.440491 6.21885L6.35497 5.35942L9 0Z" transform="translate(-0.000976562 -0.000366211) scale(2)" fill="#F2994A"/>
</svg>
