<svg xmlns="http://www.w3.org/2000/svg" viewBox="0 0 256 256"><path style="fill:#0f111f" d="M0 0h256v256H0z"/><path d="M68.3 133.1V91.6h.1l21.2-7.5 21.2-7.5 31.6-11.2L174 54.2h.1c.1 0 0 0 0-.1V30.7s0-.2-.1-.2h-.2l-42.4 15.1L89 60.7l-21.2 7.5-21.2 7.5h-.1c-.1 0 0 0 0 .1v124.3s0 .2.1.2h.2l10.7-3.8 10.7-3.8h.1c.1 0 0 0 0-.1v-59.1Z" style="fill:#00aee6"/><path d="m124.6 127.7 42.4-15.1 42.4-15.1h.1c.1 0 0 0 0-.1V56.3s0-.2-.1-.2h-.2l-42.4 15.1-42.4 15.1-21.2 7.5-21.2 7.5h-.1c-.1 0 0 0 0 .1v124.3s0 .2.1.2h.2l21.1-7.5 21.1-7.5 21.3-7.6 21.3-7.6 21.2-7.5 21.2-7.5h.1c.1 0 0 0 0-.1v-61.9s0-.2-.1-.2h-.2l-21 7.5-21 7.5h-.1c-.1 0 0 0 0 .1v20.5h-.1l-21 7.5-21 7.5h-.2s-.1-.1-.1-.2v-41.2h.1Z" style="fill:#fff"/></svg>
